# xmcd CD database file
#
# Track frame offsets:
#	150
#	19282
#	41630
#	54532
#	79030
#	99400
#	127145
#	149972
#	175910
#	185427
#	199650
#
# Disc length: 3171 seconds
#
# Revision: 2
# Processed by: cddbd v1.5.2PL0 Copyright (c) Steve Scherf et al.
# Submitted via: CDex 1.70beta2
#
DISCID=a10c610b
DTITLE=Uri Caine (elp, p, or), Ahmir Thompson (d), Christian McBride (eb, b) - The Philadelphia Experiment
DYEAR=2001
DGENRE=Jazz
TTITLE0=Philadelphia Experiment
TTITLE1=Grover
TTITLE2=Lesson#4
TTITLE3=Call For All Demons
TTITLE4=Trouble Man Theme
TTITLE5=Ain't It The Truth
TTITLE6=Ile Ife
TTITLE7=The Miles Hit
TTITLE8=(re)MOVEd
TTITLE9=Philadelphia Freedom
TTITLE10=Mister Magic
EXTD=YEAR: 2001
EXTT0=
EXTT1=
EXTT2=
EXTT3=
EXTT4=
EXTT5=
EXTT6=
EXTT7=
EXTT8=
EXTT9=
EXTT10=
PLAYORDER=
